HIERARCHY
ROOT HipCenter
{
    OFFSET 0.0 0.0 -0.0
    CHANNELS 6 Xposition Yposition Zposition Zrotation Xrotation Yrotation
    JOINT Spine
    {
        OFFSET 0.0 12.034629821777344 0.0
        CHANNELS 3 Zrotation Xrotation Yrotation
        JOINT ShoulderCenter
        {
            OFFSET 0.0 31.423189163208008 0.0
            CHANNELS 3 Zrotation Xrotation Yrotation
            JOINT LeftShoulder
            {
                OFFSET 16.945829391479492 0.0 0.0
                CHANNELS 3 Zrotation Xrotation Yrotation
                JOINT LeftElbow
                {
                    OFFSET 30.426681518554688 0.0 0.0
                    CHANNELS 3 Zrotation Xrotation Yrotation
                    JOINT LeftWrist
                    {
                        OFFSET 26.31668472290039 0.0 0.0
                        CHANNELS 3 Zrotation Xrotation Yrotation
                        JOINT LeftHand
                        {
                            OFFSET 2.591684103012085 0.0 0.0
                            CHANNELS 3 Zrotation Xrotation Yrotation
                            End Site
                            {
                                OFFSET 1.036673665046692 0.0 0.0
                            }
                        }
                    }
                }
            }
            JOINT RightShoulder
            {
                OFFSET -16.945829391479492 0.0 0.0
                CHANNELS 3 Zrotation Xrotation Yrotation
                JOINT RightElbow
                {
                    OFFSET -30.426681518554688 0.0 0.0
                    CHANNELS 3 Zrotation Xrotation Yrotation
                    JOINT RightWrist
                    {
                        OFFSET -26.31668472290039 0.0 0.0
                        CHANNELS 3 Zrotation Xrotation Yrotation
                        JOINT RightHand
                        {
                            OFFSET -2.591684103012085 0.0 0.0
                            CHANNELS 3 Zrotation Xrotation Yrotation
                            End Site
                            {
                                OFFSET -1.036673665046692 0.0 0.0
                            }
                        }
                    }
                }
            }
            End Site
            {
                OFFSET 0.0 12.569276809692383 0.0
            }
        }
    }
    JOINT LeftHip
    {
        OFFSET 16.761558532714844 0.0 0.0
        CHANNELS 3 Zrotation Xrotation Yrotation
        JOINT LeftKnee
        {
            OFFSET 0.0 -35.00017547607422 0.0
            CHANNELS 3 Zrotation Xrotation Yrotation
            JOINT LeftAnkle
            {
                OFFSET 0.0 -41.17556381225586 0.0
                CHANNELS 3 Zrotation Xrotation Yrotation
                JOINT LeftFoot
                {
                    OFFSET 0.0 -12.279741287231445 0.0
                    CHANNELS 3 Zrotation Xrotation Yrotation
                    End Site
                    {
                        OFFSET 0.0 0.0 4.911896228790283
                    }
                }
            }
        }
    }
    JOINT RightHip
    {
        OFFSET -16.761558532714844 0.0 0.0
        CHANNELS 3 Zrotation Xrotation Yrotation
        JOINT RightKnee
        {
            OFFSET 0.0 -35.00017547607422 0.0
            CHANNELS 3 Zrotation Xrotation Yrotation
            JOINT RightAnkle
            {
                OFFSET 0.0 -41.17556381225586 0.0
                CHANNELS 3 Zrotation Xrotation Yrotation
                JOINT RightFoot
                {
                    OFFSET 0.0 -12.279741287231445 0.0
                    CHANNELS 3 Zrotation Xrotation Yrotation
                    End Site
                    {
                        OFFSET 0.0 0.0 4.911896228790283
                    }
                }
            }
        }
    }
}
MOTION
Frames: 7
Frame Time: 0.03333333333333333
37.79999923706055 -87.9000015258789 152.1999969482422 -27.083540615144152 34.91925600877607 -138.95315647245485 -0.02706928786210111 17.8180098569253 -1.4954722757834797 6.54158894083518e-07 -1.2341316213838713e-07 16.353254772239854 120.73655005545899 11.767948123270422 129.68998727118407 1.0089516269062542e-06 -4.7625718964927644e-06 32.086821114741774 1.6231033904071888e-06 -57.13075092101074 89.61238867394303 6.361109362927033e-15 8.827812596100317e-32 1.5902773407317582e-15 -97.64513655122587 -5.422293934160198 -130.8771103773498 -2.2196623999647034e-06 2.1680091484344084e-06 -30.90277217655946 0.00010247986997149908 -88.59431236428208 -74.78466883541826 0.0 0.0 -6.3611093629270335e-15 173.22429053192036 -83.43546539687637 -152.92909555608227 106.49852428582403 45.91361919907292 -142.868053244728 21.14070423362252 -47.56725981462956 42.81224132016228 0.0 0.0 0.0 128.82768900871645 -84.63148065156398 106.20776204587325 -113.54656199739554 56.388615424996196 144.17076763240414 -25.249507447528476 -41.94556599684078 -35.169146489010416 8.827812596100317e-32 6.3611093629270335e-15 -1.5902773407317584e-15
37.5 -87.69999694824219 151.1999969482422 -27.897270162286617 36.81926179805023 -137.86144443535989 1.2269696605227065 18.975784014024164 -1.9032790484700912 -8.489087159168995e-07 5.550872458128105e-07 16.073942188539643 121.91781680771943 11.949790110445557 128.74929972185342 -1.7290177355018566e-06 5.594319582469627e-07 31.90148515305443 6.81261477234334e-06 -52.77495827030306 86.57424779692157 3.180554681463516e-15 4.4139062980501586e-32 1.590277340731758e-15 -97.49351879435001 -5.4820729815418385 -129.08074912741395 -1.8430273430948397e-06 9.01689570266906e-07 -32.104973831513945 -2.4006800230920414e-05 -87.07257832163766 -74.77891129030554 3.1805546814635164e-15 8.827812596100317e-32 3.1805546814635164e-15 178.9408755339806 -85.33354828392734 -148.27251689147266 107.43627991427887 45.560938532806645 -143.7611454561758 20.701070238625707 -47.68584633470879 42.199278598169656 -1.5902773407317584e-15 6.3611093629270335e-15 1.5902773407317584e-15 111.57271475320894 -85.82216786253709 89.10426500973098 -116.46385028809361 56.90852059628714 147.17099524177658 -26.97893293326314 -42.41379672812749 -35.34402272609019 -3.180554681463516e-15 -6.361109362927032e-15 1.5902773407317578e-15
37.29999923706055 -87.5999984741211 150.1999969482422 -28.46517266216073 38.46269453846167 -136.66148104376225 2.2769373413833573 19.941128672982238 -2.047226140420312 -1.9156546086258342e-07 -6.129057059608364e-07 15.171271442750916 122.72313432302057 11.488808307692365 127.4377457912411 -1.0617295271969872e-06 6.983803171086486e-06 32.895087167600785 -5.433541429772906e-06 -52.91478017523366 88.2289696298866 -6.3611093629270335e-15 6.3611093629270335e-15 2.385416011097638e-15 -96.60303905014035 -6.246165191836383 -127.62868357742686 2.447069859047008e-06 4.411522545249568e-08 -33.20143691981944 0.0006324098135784496 -89.5493201403052 -75.35589499489377 -3.1805546814635164e-15 6.361109362927033e-15 1.7655625192200634e-31 -163.34935677810697 -86.64475459935397 -132.19868456430692 108.58923095109819 45.84936737380997 -144.4695619158881 20.428518554138275 -46.714055280688314 40.80015875964866 0.0 0.0 1.5902773407317582e-15 96.55828865797233 -87.01107144945992 73.10806601527386 -119.2160678775444 56.238488977829014 151.2236202916377 -29.06415899420786 -41.80056320101465 -35.463523373489835 3.1805546814635168e-15 0.0 0.0
37.0 -87.5999984741211 149.3000030517578 -29.29138778097061 38.57908545388544 -135.77721040121975 1.8059371054407654 19.530370778792648 -1.8566000105402527 1.3700336688624032e-06 -1.0185796512030644e-06 15.056891138823001 123.6241912621602 9.993743954424499 126.3665380392003 1.1156114615007787e-06 2.5926757348236837e-06 33.6683112531285 3.691606149238502e-06 -55.37684303640472 84.87352959681387 -8.827812596100317e-32 -6.361109362927033e-15 -1.5902773407317582e-15 -95.68415943971863 -5.950703612154596 -125.76520091356362 4.261154504283284e-07 -1.5042115462579212e-06 -33.823359211119076 0.00011363360821080006 -87.81408701043765 -77.64284127697537 0.0 0.0 0.0 -154.88014255861196 -86.90788857915169 -123.96992288471334 110.01778391050533 45.739952753618674 -146.1936674795883 21.12266588038322 -46.33028687366457 40.350793763588506 0.0 -6.3611093629270335e-15 0.0 96.15823261992091 -87.13012062801637 73.2462055772688 -121.87277736017799 55.83024942361057 153.86290353954337 -29.437315590583893 -42.39155150704903 -35.001525050347496 -3.1805546814635168e-15 6.620859447075238e-32 -2.3854160110976376e-15
36.79999923706055 -87.5 148.39999389648438 -30.12432459059198 38.69015315563943 -135.34300968081217 1.1163515195010234 19.197453727003566 -1.7741034256838282 5.885275614710038e-07 1.1331287887544667e-06 15.210712164881611 124.2194762359573 8.441365379783155 125.02691229694321 -3.113289270339611e-06 2.1374216644450378e-06 34.72989177240067 4.6253044351407967e-07 -56.341047749616926 82.04020889463938 -3.1805546814635168e-15 4.4139062980501586e-32 -1.5902773407317584e-15 -94.97358901327841 -5.631565106250397 -123.90636523199447 -3.6800499570715766e-06 4.141799315331094e-06 -35.204859266664826 -0.0003268698441183662 -89.4746783068261 -76.00620878225293 6.3611093629270335e-15 0.0 0.0 -159.42107113457283 -86.91931951215666 -127.8146244628415 111.4924996020634 44.67424243113551 -147.8356894838338 21.126391404627707 -46.10441080622697 40.08121670191147 -1.5902773407317588e-15 0.0 0.0 94.808283546708 -86.79287866712164 72.20045037160747 -123.9437468123151 55.455051612748 155.3940144019877 -29.972128952953128 -42.13253445961538 -34.75611765644875 3.1805546814635176e-15 8.827812596100317e-32 3.1805546814635176e-15
36.70000076293945 -87.5999984741211 147.59999084472656 -28.810801315583085 40.142914234100395 -136.03588307419443 3.8070944128495667 19.114215924784148 -2.032118726378739 1.0839287553269375e-07 3.721938652994296e-06 15.073975145509584 124.33201626948522 8.053432701106477 123.71730947307948 1.5914063401600971e-06 2.0666702826863652e-06 35.452729941966304 7.378250132272827e-06 -56.05156128407947 83.75532366315318 -1.7655625192200634e-31 6.3611093629270335e-15 3.1805546814635168e-15 -95.33864534372437 -5.583062764778502 -122.0280440565144 -1.3275768908261902e-06 7.00333938613647e-06 -36.48453761932151 0.0001927413318942724 -89.55702663514475 -76.30436732674133 0.0 0.0 -3.1805546814635168e-15 -156.9545527426397 -86.71817615425346 -127.40338031485517 113.05646349160335 44.30249715536196 -149.26491709562802 21.16929533230255 -45.82272469928381 39.334316108120056 1.5902773407317584e-15 0.0 0.0 97.75736049202976 -86.66476278430133 73.23540952890906 -125.62725739433239 54.77621859366782 157.13164245868222 -30.40123671808266 -42.4197589834579 -34.695528139453934 -3.1805546814635168e-15 6.3611093629270335e-15 -7.95138670365879e-16
36.5 -87.80000305175781 146.8000030517578 -29.357731967896132 40.3574106402477 -135.3794549501909 3.6631178962932633 19.321701931690356 -2.0547169640197835 -1.3357236981580872e-06 -2.440791523282852e-07 14.889835613927298 124.48034701244374 6.6729417033203635 122.71425845270022 -2.438460421281305e-06 -4.471488002386385e-06 36.7081636727474 7.945493045948267e-06 -60.538003264994536 83.36883954956522 0.0 0.0 3.1805546814635168e-15 -94.64059974605645 -5.570133040384123 -120.52823380592889 -2.988926534469436e-06 -9.901861572279084e-08 -37.62575794376758 -2.1633068378311952e-05 -88.1661597194493 -76.6169314589745 6.3611093629270335e-15 -6.3611093629270335e-15 -3.1805546814635164e-15 -153.88123272071533 -86.45241026748258 -124.18041362574796 114.25182032165574 43.54884517181063 -150.28601464062578 21.541761017804028 -46.20619764875402 39.78583780566318 -3.1805546814635168e-15 6.3611093629270335e-15 -1.5902773407317582e-15 99.25591589769512 -86.48810688914513 75.20400672347141 -127.4744077222996 54.587303672916036 158.25085193789332 -30.409954590441696 -42.20028344789012 -34.04725367739955 1.7655625192200634e-31 -6.3611093629270335e-15 3.1805546814635168e-15
